# 3ds Max Wavefront OBJ Exporter v0.97b - (c)2007 guruware
# File Created: 12.11.2019 02:22:57

mtllib concept01_walls.mtl

#
# object concept01_wall
#

v  -259.0297 0.0000 -332.1064
v  -259.0297 0.0000 -336.0435
v  -256.2077 0.0000 -336.0435
v  -256.2077 0.0000 -332.1064
v  -259.0297 39.3701 -332.1064
v  -256.2077 39.3701 -332.1064
v  -256.2077 39.3701 -336.0435
v  -259.0297 39.3701 -336.0435
v  -259.0297 0.0000 -57.7279
v  -256.2077 0.0000 -57.7279
v  -256.2077 39.3701 -57.7279
v  -259.0297 39.3701 -57.7279
v  268.9070 0.0000 -332.1064
v  268.9070 0.0000 -336.0435
v  268.9070 39.3701 -336.0435
v  268.9070 39.3701 -332.1064
v  266.8783 0.0000 -336.0435
v  266.8784 39.3701 -336.0435
v  266.8784 0.0000 -332.1064
v  266.8783 39.3701 -332.1064
v  266.8784 0.0000 -53.8903
v  268.9070 0.0000 -53.8903
v  268.9070 39.3701 -53.8903
v  266.8783 39.3701 -53.8903
v  -259.0297 39.3701 -199.1115
v  -256.2077 39.3701 -199.1115
v  -259.0297 0.0000 -199.1115
v  -256.2077 0.0000 -199.1115
v  268.9070 0.0000 -199.1115
v  266.8784 0.0000 -199.1115
v  268.9070 39.3701 -199.1115
v  266.8783 39.3701 -199.1115
v  -259.0297 39.3701 -196.7343
v  -256.2077 39.3701 -196.7343
v  -420.0609 0.0000 -199.1122
v  -420.0609 0.0000 -196.7350
v  -420.0609 39.3701 -196.7350
v  -420.0609 39.3701 -199.1122
v  -256.2077 0.0000 -196.7343
v  -259.0297 0.0000 -196.7343
v  -228.6659 39.3701 -199.1114
v  -228.6659 39.3701 -196.7342
v  -228.6659 0.0000 -196.7342
v  -228.6659 0.0000 -199.1114
v  268.9070 0.0000 -196.7343
v  266.8784 0.0000 -196.7343
v  432.6059 39.3701 -199.1122
v  432.6059 39.3701 -196.7350
v  432.6059 0.0000 -196.7350
v  432.6059 0.0000 -199.1122
v  266.8783 39.3701 -196.7343
v  268.9070 39.3701 -196.7343
v  249.6129 -0.0000 -199.1115
v  249.6129 -0.0000 -196.7343
v  249.6129 39.3701 -196.7343
v  249.6129 39.3701 -199.1115
v  -418.0739 39.3701 -199.1122
v  -418.0739 39.3701 -196.7350
v  -418.0739 0.0000 -199.1122
v  -418.0739 0.0000 -196.7350
v  430.8424 0.0000 -199.1122
v  430.8424 0.0000 -196.7350
v  430.8424 39.3701 -199.1122
v  430.8424 39.3701 -196.7350
v  -418.0742 39.3701 -139.9038
v  -420.0613 39.3701 -139.9038
v  -420.0613 0.0000 -139.9038
v  -418.0742 0.0000 -139.9038
v  430.8428 0.0000 -151.4594
v  432.6063 0.0000 -151.4594
v  432.6063 39.3701 -151.4594
v  430.8428 39.3701 -151.4594
v  -255.6593 39.3701 20.7983
v  -259.5963 39.3701 20.7983
v  -259.5964 39.3701 41.0798
v  -255.6594 39.3701 37.1428
v  3.9031 39.3701 41.0798
v  3.9030 39.3701 37.1428
v  266.9133 39.3701 37.1428
v  269.6429 39.3701 41.0798
v  269.6430 39.3701 25.5083
v  266.9134 39.3701 25.5083
v  -259.5963 0.0000 20.7983
v  -259.5964 0.0000 41.0798
v  3.9031 0.0000 41.0798
v  3.9030 39.3701 41.0798
v  269.6429 0.0000 41.0798
v  269.6430 0.0000 25.5083
v  266.9134 0.0000 25.5083
v  266.9133 0.0000 37.1428
v  7.8376 0.0000 37.1428
v  7.8376 39.3701 37.1428
v  -255.6594 0.0000 37.1428
v  -255.6593 0.0000 20.7983
v  3.9031 0.0000 37.1428
v  3.9030 0.0000 41.0798
v  7.8375 39.3701 41.0798
v  7.8375 0.0000 41.0798
v  7.8376 39.3701 41.0798
v  3.9030 0.0000 37.1428
v  3.9031 39.3701 37.1428
v  7.8376 0.0000 41.0798
v  7.8376 0.0000 -167.2988
v  3.9031 0.0000 -167.2988
v  3.9031 39.3701 -167.2988
v  7.8376 39.3701 -167.2988
v  7.8376 39.3701 -164.1035
v  3.9031 39.3701 -164.1035
v  7.8376 0.0000 -164.1035
v  3.9031 0.0000 -164.1035
v  92.4394 0.0000 -164.1035
v  92.4394 0.0000 -167.2988
v  92.4394 39.3701 -167.2988
v  92.4394 39.3701 -164.1035
v  -80.8753 39.3701 -164.1035
v  -80.8753 39.3701 -167.2988
v  -80.8753 0.0000 -167.2988
v  -80.8753 0.0000 -164.1035
v  90.1994 39.3701 -167.2988
v  90.1994 0.0000 -167.2988
v  90.1994 39.3701 -164.1035
v  90.1994 0.0000 -164.1035
v  -78.6352 0.0000 -167.2988
v  -78.6352 39.3701 -167.2988
v  -78.6352 0.0000 -164.1035
v  -78.6352 39.3701 -164.1035
v  90.1994 0.0000 -199.3669
v  90.1994 39.3701 -199.3669
v  92.4394 39.3701 -199.3669
v  92.4394 0.0000 -199.3669
v  -78.6353 39.3701 -199.3669
v  -78.6353 0.0000 -199.3669
v  -80.8754 0.0000 -199.3669
v  -80.8754 39.3701 -199.3669
v  90.1994 39.3701 -196.3823
v  90.1994 0.0000 -196.3823
v  92.4394 39.3701 -196.3823
v  92.4394 0.0000 -196.3823
v  -78.6353 0.0000 -196.3824
v  -78.6353 39.3701 -196.3824
v  -80.8753 0.0000 -196.3823
v  -80.8753 39.3701 -196.3823
v  206.5520 39.3701 -196.3823
v  206.5520 0.0000 -196.3823
v  206.5520 0.0000 -199.3669
v  206.5520 39.3701 -199.3669
v  -165.2906 0.0000 -196.3819
v  -165.2906 39.3701 -196.3819
v  -165.2907 39.3701 -199.3665
v  -165.2907 0.0000 -199.3665
v  -420.2397 39.3701 279.0284
v  144.4276 39.3701 279.0284
v  144.4276 39.3701 275.0914
v  -416.3026 39.3701 275.0914
v  -420.2397 39.3701 -106.5133
v  -416.3027 39.3701 -106.5133
v  -420.2397 0.0000 279.0284
v  144.4276 0.0000 279.0284
v  -420.2397 0.0000 -106.5133
v  -416.3027 0.0000 -106.5133
v  -416.3026 0.0000 275.0914
v  144.4276 0.0000 275.0914
v  433.3532 39.3701 279.2032
v  433.3531 39.3701 -119.0354
v  429.4161 39.3701 -119.0354
v  429.4162 39.3701 275.2662
v  255.9267 39.3701 279.2032
v  255.9267 39.3701 275.2662
v  433.3532 0.0000 279.2032
v  433.3531 0.0000 -119.0354
v  255.9267 0.0000 279.2032
v  255.9267 0.0000 275.2662
v  429.4162 0.0000 275.2662
v  429.4161 0.0000 -119.0354
# 174 vertices

vn -0.7071 -0.7071 -0.0000
vn -0.5774 -0.5774 -0.5774
vn 0.0000 -0.7071 -0.7071
vn 0.3015 -0.9045 0.3015
vn -0.7071 0.7071 -0.0000
vn 0.3015 0.9045 0.3015
vn 0.0000 0.7071 -0.7071
vn -0.5774 0.5774 -0.5774
vn -0.5774 -0.5774 0.5774
vn 0.5774 -0.5774 0.5774
vn 0.5774 0.5774 0.5774
vn -0.5774 0.5774 0.5774
vn 0.7071 -0.7071 -0.0000
vn 0.5774 -0.5774 -0.5774
vn 0.5774 0.5774 -0.5774
vn 0.7071 0.7071 -0.0000
vn -0.3015 -0.9045 0.3015
vn -0.3015 0.9045 0.3015
vn -0.5774 0.5773 0.5774
vn -0.3015 0.9045 -0.3015
vn 0.3015 0.9045 -0.3015
vn -0.3015 -0.9045 -0.3015
vn 0.3015 -0.9045 -0.3015
vn -0.5773 -0.5774 -0.5774
vn -0.5773 0.5774 -0.5774
vn 0.5774 0.5774 -0.5773
vn 0.5773 0.5773 0.5774
vn 0.5773 -0.5773 0.5774
vn 0.5774 -0.5774 -0.5773
vn 0.5773 0.5773 -0.5774
vn 0.5773 -0.5773 -0.5774
vn -0.0000 -0.7071 -0.7071
vn -0.0000 0.7071 -0.7071
vn 0.5773 0.5774 0.5774
vn -0.5774 0.5773 0.5773
vn -0.5774 -0.5773 0.5773
vn 0.5773 -0.5774 0.5774
vn -0.5773 -0.5774 0.5774
vn 0.5774 -0.5774 0.5773
vn 0.5774 0.5774 0.5773
vn -0.5773 0.5774 0.5774
vn 0.0000 1.0000 -0.0000
vn -0.7071 0.0000 -0.7071
vn -0.7071 0.0000 0.7071
vn -0.0000 -0.0000 1.0000
vn 0.7071 0.0000 0.7071
vn 0.7071 0.0000 -0.7071
vn 0.0000 -1.0000 -0.0000
vn 0.0000 0.0000 1.0000
vn 0.7071 0.7071 0.0000
vn -0.7071 0.7071 0.0000
vn -0.7071 -0.7071 0.0000
vn 0.0000 0.7071 0.7071
vn 0.0000 -0.7071 0.7071
vn 0.5773 0.5774 -0.5774
vn 0.5773 -0.5774 -0.5774
vn -0.5773 -0.5773 0.5774
vn -0.5773 0.5773 0.5774
vn -0.5774 0.5774 -0.5773
vn -0.5774 -0.5774 -0.5773
# 60 vertex normals

vt 1.0000 0.0000 0.0000
vt 1.0000 1.0000 0.0000
vt 0.9924 1.0000 0.0000
vt 0.9924 0.0000 0.0000
vt 0.0000 0.0000 0.0000
vt 0.0076 0.0000 0.0000
vt 0.0076 1.0000 0.0000
vt 0.0000 1.0000 0.0000
vt 0.0055 0.0000 0.0000
vt 0.0055 1.0000 0.0000
vt 0.9945 0.0000 0.0000
vt 0.9945 1.0000 0.0000
vt 0.0000 0.0106 0.0000
vt 0.9893 0.0106 0.0000
vt 1.0000 0.4974 0.0000
vt 0.9893 0.4974 0.0000
vt 0.9893 0.9894 0.0000
vt 0.0000 0.9894 0.0000
vt 0.1672 0.0000 0.0000
vt 0.1672 1.0000 0.0000
vt 0.2505 0.0000 0.0000
vt 0.2505 1.0000 0.0000
vt 0.3346 1.0000 0.0000
vt 0.3346 0.0000 0.0000
vt 0.5018 0.0000 0.0000
vt 0.5018 1.0000 0.0000
vt 0.5036 0.0000 0.0000
vt 0.5036 1.0000 0.0000
vt 0.6690 0.0000 0.0000
vt 0.6690 1.0000 0.0000
vt 0.7495 0.0000 0.0000
vt 0.7495 1.0000 0.0000
vt 0.8328 1.0000 0.0000
vt 0.8328 0.0000 0.0000
vt 0.9982 0.0000 0.0000
vt 0.9982 1.0000 0.0000
vt 0.9893 0.5026 0.0000
vt 1.0000 0.5026 0.0000
vt 1.0000 0.5080 0.0000
vt 0.9893 0.5080 0.0000
vt 0.2522 0.0000 0.0000
vt 0.2522 1.0000 0.0000
vt 0.7513 0.0000 0.0000
vt 0.7513 1.0000 0.0000
vt 0.9893 0.4920 0.0000
vt 1.0000 0.4920 0.0000
vt 0.0000 0.0105 0.0000
vt 0.9901 0.0105 0.0000
vt 0.9901 1.0000 0.0000
vt 0.2568 0.0000 0.0000
vt 0.2568 1.0000 0.0000
vt 0.5000 0.0000 0.0000
vt 0.5000 1.0000 0.0000
vt 0.5026 0.0000 0.0000
vt 0.5026 1.0000 0.0000
vt 0.7432 0.0000 0.0000
vt 0.7432 1.0000 0.0000
vt 0.9974 0.0000 0.0000
vt 0.9974 1.0000 0.0000
vt 0.9901 0.9895 0.0000
vt 0.0000 0.9895 0.0000
vt 0.9901 0.0000 0.0000
# 62 texture coords

o concept01_wall
g concept01_wall
usemtl wire_028089177
s 2
f 1/1/1 2/2/2 3/3/3 4/4/4 
s 4
f 5/5/5 6/6/6 7/7/7 8/8/8 
s 8
f 9/5/9 10/6/10 11/7/11 12/8/12 
s 16
f 13/5/13 14/1/14 15/2/15 16/8/16 
s 32
f 14/5/14 17/9/3 18/10/7 15/8/15 
s 64
f 2/5/2 1/1/1 5/2/5 8/8/8 
s 2
f 3/3/3 17/10/3 19/9/17 4/4/4 
s 4
f 6/6/6 20/11/18 18/12/7 7/7/7 
s 8
f 4/6/4 19/11/17 20/12/18 6/7/6 
s 32
f 3/4/3 2/1/2 8/2/8 7/3/7 
f 17/9/3 3/4/3 7/3/7 18/10/7 
s 2
f 17/10/3 14/8/14 13/5/13 19/9/17 
s 4
f 20/11/18 16/1/16 15/2/15 18/12/7 
s 8
f 21/11/9 22/1/10 23/2/11 24/12/19 
s off
f 6/7/6 5/8/5 25/8/20 26/7/21 
f 5/8/5 1/5/1 27/5/22 25/8/20 
f 1/5/1 4/6/4 28/6/23 27/5/22 
f 4/6/4 6/7/6 26/7/21 28/6/23 
f 19/11/17 13/1/13 29/1/23 30/11/22 
f 13/1/13 16/2/16 31/2/21 29/1/23 
f 16/2/16 20/12/18 32/12/20 31/2/21 
f 20/12/18 19/11/17 30/11/22 32/12/20 
f 25/8/20 33/8/18 34/7/6 26/7/21 
f 35/5/24 36/5/1 37/8/5 38/8/25 
f 28/6/23 39/6/4 40/5/17 27/5/22 
f 41/7/26 42/7/27 43/6/28 44/6/29 
f 29/1/23 45/1/4 46/11/17 30/11/22 
f 47/2/30 48/2/16 49/1/13 50/1/31 
f 32/12/20 51/12/18 52/2/6 31/2/21 
f 53/11/2 54/11/9 55/12/12 56/12/8 
f 33/8/18 12/8/12 11/7/11 34/7/6 
f 40/5/17 9/5/9 12/8/12 33/8/18 
f 39/6/4 10/6/10 9/5/9 40/5/17 
f 34/7/6 11/7/11 10/6/10 39/6/4 
f 45/1/4 22/1/10 21/11/9 46/11/17 
f 52/2/6 23/2/11 22/1/10 45/1/4 
f 51/12/18 24/12/19 23/2/11 52/2/6 
f 46/11/17 21/11/9 24/12/19 51/12/18 
f 33/8/18 25/8/20 57/8/7 58/8/6 
f 25/8/20 27/5/22 59/5/3 57/8/7 
f 27/5/22 40/5/17 60/5/4 59/5/3 
f 40/5/17 33/8/18 58/8/6 60/5/4 
f 45/1/4 29/1/23 61/1/32 62/1/17 
f 29/1/23 31/2/21 63/2/33 61/1/32 
f 31/2/21 52/2/6 64/2/18 63/2/33 
f 52/2/6 45/1/4 62/1/17 64/2/18 
f 26/7/21 34/7/6 42/7/27 41/7/26 
f 34/7/6 39/6/4 43/6/28 42/7/27 
f 39/6/4 28/6/23 44/6/29 43/6/28 
f 28/6/23 26/7/21 41/7/26 44/6/29 
f 30/11/22 46/11/17 54/11/9 53/11/2 
f 46/11/17 51/12/18 55/12/12 54/11/9 
f 51/12/18 32/12/20 56/12/8 55/12/12 
f 32/12/20 30/11/22 53/11/2 56/12/8 
f 57/8/7 38/8/25 37/8/5 58/8/6 
f 59/5/3 35/5/24 38/8/25 57/8/7 
f 60/5/4 36/5/1 35/5/24 59/5/3 
f 65/8/34 66/8/35 67/5/36 68/5/37 
f 61/1/32 50/1/31 49/1/13 62/1/17 
f 63/2/33 47/2/30 50/1/31 61/1/32 
f 64/2/18 48/2/16 47/2/30 63/2/33 
f 69/1/38 70/1/39 71/2/40 72/2/41 
f 37/8/5 36/5/1 67/5/36 66/8/35 
f 36/5/1 60/5/4 68/5/37 67/5/36 
f 60/5/4 58/8/6 65/8/34 68/5/37 
f 58/8/6 37/8/5 66/8/35 65/8/34 
f 49/1/13 48/2/16 71/2/40 70/1/39 
f 48/2/16 64/2/18 72/2/41 71/2/40 
f 64/2/18 62/1/17 69/1/38 72/2/41 
f 62/1/17 49/1/13 70/1/39 69/1/38 
s 1
f 73/13/42 74/5/42 75/1/42 76/14/42 
f 76/14/42 75/1/42 77/15/42 78/16/42 
f 79/17/42 80/2/42 81/8/42 82/18/42 
s 2
f 74/8/43 83/5/43 84/19/44 75/20/44 
s 4
f 75/20/44 84/19/44 85/21/45 86/22/45 
s 2
f 80/23/46 87/24/46 88/25/47 81/26/47 
s 4
f 81/26/47 88/25/47 89/27/43 82/28/43 
s 2
f 82/28/43 89/27/43 90/29/43 79/30/43 
s 4
f 79/30/43 90/29/43 91/31/14 92/32/15 
s 2
f 76/33/47 93/34/47 94/35/47 73/36/47 
s 4
f 73/36/47 94/35/47 83/1/43 74/2/43 
s 1
f 83/8/48 94/18/48 93/17/48 84/2/48 
f 84/2/48 93/17/48 95/37/48 96/38/48 
f 87/1/48 90/14/48 89/13/48 88/5/48 
f 77/15/42 97/39/42 92/40/42 78/16/42 
s 4
f 85/21/45 98/41/49 99/42/49 86/22/45 
f 100/43/2 93/34/47 76/33/47 101/44/25 
s 1
f 95/37/48 91/45/48 102/46/48 96/38/48 
s 4
f 103/31/32 104/43/3 105/44/7 106/32/7 
s 1
f 97/39/42 80/2/42 79/17/42 92/40/42 
s 4
f 98/41/49 87/24/46 80/23/46 99/42/49 
s 1
f 91/45/48 90/14/48 87/1/48 102/46/48 
s off
f 101/44/25 92/32/15 107/32/6 108/44/18 
f 92/32/15 91/31/14 109/31/4 107/32/6 
f 91/31/14 100/43/2 110/43/17 109/31/4 
f 100/43/2 101/44/25 108/44/18 110/43/17 
f 107/32/6 106/32/7 105/44/7 108/44/18 
f 111/31/10 112/31/13 113/32/50 114/32/11 
f 110/43/17 104/43/3 103/31/32 109/31/4 
f 115/44/41 116/44/51 117/43/52 118/43/38 
f 103/31/32 106/32/7 119/32/20 120/31/22 
f 106/32/7 107/32/6 121/32/53 119/32/20 
f 107/32/6 109/31/4 122/31/54 121/32/53 
f 109/31/4 103/31/32 120/31/22 122/31/54 
f 105/44/7 104/43/3 123/43/23 124/44/21 
f 104/43/3 110/43/17 125/43/54 123/43/23 
f 110/43/17 108/44/18 126/44/53 125/43/54 
f 108/44/18 105/44/7 124/44/21 126/44/53 
f 127/31/2 128/32/8 129/32/7 130/31/3 
f 119/32/20 121/32/53 114/32/11 113/32/50 
f 121/32/53 122/31/54 111/31/10 114/32/11 
f 122/31/54 120/31/22 112/31/13 111/31/10 
f 131/44/55 132/43/56 133/43/32 134/44/33 
f 123/43/23 125/43/54 118/43/38 117/43/52 
f 125/43/54 126/44/53 115/44/41 118/43/38 
f 126/44/53 124/44/21 116/44/51 115/44/41 
f 120/31/22 119/32/20 135/32/5 136/31/1 
f 119/32/20 113/32/50 137/32/6 135/32/5 
f 113/32/50 112/31/13 138/31/4 137/32/6 
f 112/31/13 120/31/22 136/31/1 138/31/4 
f 124/44/21 123/43/23 139/43/13 140/44/16 
f 123/43/23 117/43/52 141/43/17 139/43/13 
f 117/43/52 116/44/51 142/44/18 141/43/17 
f 116/44/51 124/44/21 140/44/16 142/44/18 
f 136/31/1 135/32/5 128/32/8 127/31/2 
f 135/32/5 137/32/6 129/32/7 128/32/8 
f 143/32/11 144/31/10 145/31/14 146/32/15 
f 138/31/4 136/31/1 127/31/2 130/31/3 
f 140/44/16 139/43/13 132/43/56 131/44/55 
f 139/43/13 141/43/17 133/43/32 132/43/56 
f 147/43/57 148/44/58 149/44/59 150/43/60 
f 142/44/18 140/44/16 131/44/55 134/44/33 
f 137/32/6 138/31/4 144/31/10 143/32/11 
f 138/31/4 130/31/3 145/31/14 144/31/10 
f 130/31/3 129/32/7 146/32/15 145/31/14 
f 129/32/7 137/32/6 143/32/11 146/32/15 
f 141/43/17 142/44/18 148/44/58 147/43/57 
f 142/44/18 134/44/33 149/44/59 148/44/58 
f 134/44/33 133/43/32 150/43/60 149/44/59 
f 133/43/32 141/43/17 147/43/57 150/43/60 
s 1
f 151/1/42 152/5/42 153/47/42 154/48/42 
f 155/2/42 151/1/42 154/48/42 156/49/42 
s 2
f 157/50/44 158/5/46 152/8/46 151/51/44 
s 4
f 159/52/43 157/50/44 151/51/44 155/53/43 
s 2
f 160/54/47 159/52/43 155/53/43 156/55/47 
s 4
f 161/56/47 160/54/47 156/55/47 154/57/47 
s 2
f 162/58/47 161/56/47 154/57/47 153/59/47 
s 4
f 158/1/46 162/58/47 153/59/47 152/2/46 
s 1
f 161/60/48 162/61/48 158/8/48 157/2/48 
f 160/62/48 161/60/48 157/2/48 159/1/48 
f 163/1/42 164/5/42 165/47/42 166/48/42 
f 167/2/42 163/1/42 166/48/42 168/49/42 
s 2
f 169/50/46 170/5/47 164/8/47 163/51/46 
s 4
f 171/52/44 169/50/46 163/51/46 167/53/44 
s 2
f 172/54/43 171/52/44 167/53/44 168/55/43 
s 4
f 173/56/43 172/54/43 168/55/43 166/57/43 
s 2
f 174/58/43 173/56/43 166/57/43 165/59/43 
s 4
f 170/1/47 174/58/43 165/59/43 164/2/47 
s 1
f 173/60/48 174/61/48 170/8/48 169/2/48 
f 172/62/48 173/60/48 169/2/48 171/1/48 
# 160 polygons

