# 3ds Max Wavefront OBJ Exporter v0.97b - (c)2007 guruware
# File Created: 12.11.2019 02:24:45

mtllib place_holder.mtl

#
# object bathroom_table
#

v  -84.1974 0.0000 -295.7537
v  -84.1974 0.0000 -331.5267
v  263.6955 0.0000 -331.5267
v  263.6955 0.0000 -295.7537
v  -84.1974 23.2525 -295.7537
v  263.6955 23.2525 -295.7537
v  263.6955 23.2525 -331.5267
v  -84.1974 23.2525 -331.5267
# 8 vertices

vn -0.5774 -0.5774 0.5774
vn -0.5774 -0.5774 -0.5774
vn 0.5774 -0.5774 -0.5774
vn 0.5774 -0.5774 0.5774
vn -0.5774 0.5774 0.5774
vn 0.5774 0.5774 0.5774
vn 0.5774 0.5774 -0.5774
vn -0.5774 0.5774 -0.5774
# 8 vertex normals

vt 1.0000 0.0000 0.0000
vt 1.0000 1.0000 0.0000
vt 0.0000 1.0000 0.0000
vt 0.0000 0.0000 0.0000
# 4 texture coords

o bathroom_table
g bathroom_table
usemtl wire_006135113
s 2
f 1/1/1 2/2/2 3/3/3 4/4/4 
s 4
f 5/4/5 6/1/6 7/2/7 8/3/8 
s 8
f 1/4/1 4/1/4 6/2/6 5/3/5 
s 16
f 4/4/4 3/1/3 7/2/7 6/3/6 
s 32
f 3/4/3 2/1/2 8/2/8 7/3/7 
s 64
f 2/4/2 1/1/1 5/2/5 8/3/8 
# 6 polygons

#
# object couch
#

v  -96.2392 0.0000 268.1947
v  -96.2392 0.0000 210.0154
v  -84.9731 0.0000 210.0154
v  -84.9731 0.0000 268.1947
v  -84.9731 0.0000 232.6055
v  28.1333 0.0000 232.6055
v  28.1333 0.0000 210.0154
v  28.1333 0.0000 268.1947
v  39.3994 0.0000 210.0154
v  39.3994 0.0000 268.1947
v  -96.2392 23.4286 268.1947
v  -84.9731 23.4286 268.1947
v  -84.9731 23.4286 258.9007
v  -84.9731 23.4286 232.6055
v  -84.9731 23.4286 210.0154
v  -96.2392 23.4286 210.0154
v  -84.9731 30.2479 268.1947
v  28.1333 30.2479 268.1947
v  28.1333 30.2479 258.9007
v  -84.9731 30.2479 258.9007
v  28.1333 23.4286 268.1947
v  39.3994 23.4286 268.1947
v  39.3994 23.4286 210.0154
v  28.1333 23.4286 210.0154
v  28.1333 23.4286 232.6055
v  28.1333 23.4286 258.9007
v  -84.9731 14.1685 268.1947
v  -96.2392 14.1685 268.1947
v  28.1333 14.1685 268.1947
v  39.3994 14.1685 268.1947
v  39.3994 14.1685 210.0154
v  28.1333 14.1685 210.0154
v  -84.9731 14.1685 232.6055
v  28.1333 14.1685 232.6055
v  -96.2392 14.1685 210.0154
v  -84.9731 14.1685 210.0154
v  28.1333 14.1685 258.9007
v  -84.9731 14.1685 258.9007
# 38 vertices

vn -0.5774 -0.5774 0.5774
vn -0.5774 -0.5774 -0.5774
vn 0.5774 -0.5774 -0.5774
vn 0.0000 -0.7071 0.7071
vn 0.5774 0.5774 -0.5774
vn -0.5774 0.5774 -0.5774
vn 0.5774 -0.5774 0.5774
vn -0.5774 0.5774 0.5774
vn 0.5774 0.5774 0.5774
vn 0.7071 0.7071 -0.0000
vn -0.7071 0.7071 -0.0000
vn 0.0000 0.0000 1.0000
vn -0.7071 0.0000 0.7071
vn 0.7071 0.0000 0.7071
vn 0.7071 0.0000 -0.7071
vn -0.7071 0.0000 -0.7071
# 16 vertex normals

vt 1.0000 0.0000 0.0000
vt 1.0000 1.0000 0.0000
vt 0.6667 1.0000 0.0000
vt 0.6667 0.0000 0.0000
vt 0.5556 1.0000 0.0000
vt 0.4444 1.0000 0.0000
vt 0.3333 1.0000 0.0000
vt 0.3333 0.0000 0.0000
vt -0.0000 1.0000 0.0000
vt -0.0000 0.0000 0.0000
vt 0.0000 0.0000 0.0000
vt 0.3333 0.2500 0.0000
vt 0.3333 0.5000 0.0000
vt 0.0000 1.0000 0.0000
vt 0.6667 0.2500 0.0000
vt 0.6667 0.5000 0.0000
vt 0.4444 0.0000 0.0000
vt 0.5556 0.0000 0.0000
# 18 texture coords

o couch
g couch
usemtl wire_145028177
s 2
f 9/5/9 10/6/10 11/7/11 12/8/12 
f 12/8/12 11/7/11 13/9/13 14/10/14 15/11/10 16/12/12 
f 16/12/12 15/11/10 17/13/11 18/14/15 
s 4
f 19/15/16 20/12/17 21/16/18 22/17/18 23/11/13 24/18/14 
f 25/12/16 26/8/17 27/19/13 28/16/14 
f 29/8/16 30/5/17 31/6/13 32/7/14 33/20/19 34/19/19 
s 8
f 9/15/9 12/12/12 35/11/20 36/18/21 
f 12/12/12 16/8/12 37/7/20 35/11/20 
f 16/8/12 18/5/15 38/6/22 37/7/20 
s 16
f 18/15/15 17/5/11 39/6/23 38/18/22 
s 32
f 17/15/11 15/12/10 40/11/24 39/18/23 
f 14/21/14 13/22/13 41/9/11 42/10/10 
f 11/8/11 10/5/10 43/6/24 44/7/23 
s 64
f 10/15/10 9/5/9 36/6/21 43/18/24 
s 32
f 13/22/13 11/8/11 44/7/23 41/9/11 
f 42/10/10 40/11/24 15/12/10 14/21/14 
s 4
f 42/20/19 40/7/24 42/9/10 41/10/11 44/11/23 41/17/18 
f 45/19/14 42/20/19 41/17/18 46/16/13 
s off
f 35/12/20 37/8/20 26/8/17 25/12/16 
f 37/8/20 45/19/14 27/19/13 26/8/17 
f 45/19/14 46/16/13 28/16/14 27/19/13 
f 46/16/13 35/12/20 25/12/16 28/16/14 
f 36/15/21 35/12/20 20/12/17 19/15/16 
f 35/12/20 46/16/13 21/16/18 20/12/17 
f 46/16/13 41/17/18 22/17/18 21/16/18 
f 41/17/18 44/11/23 23/11/13 22/17/18 
f 44/11/23 43/18/24 24/18/14 23/11/13 
f 43/18/24 36/15/21 19/15/16 24/18/14 
f 37/8/20 38/5/22 30/5/17 29/8/16 
f 38/5/22 39/6/23 31/6/13 30/5/17 
f 39/6/23 40/7/24 32/7/14 31/6/13 
f 40/7/24 42/20/19 33/20/19 32/7/14 
f 42/20/19 45/19/14 34/19/19 33/20/19 
f 45/19/14 37/8/20 29/8/16 34/19/19 
# 34 polygons

#
# object kitchen_countertop
#

v  -414.1741 23.6220 273.2538
v  -247.2248 23.6220 273.2538
v  -247.2248 23.6220 237.8403
v  -378.7606 23.6220 237.8403
v  -414.1741 23.6220 97.4510
v  -378.7606 23.6220 97.4510
v  -414.1741 0.0000 273.2538
v  -247.2248 0.0000 273.2538
v  -414.1741 0.0000 97.4510
v  -378.7606 0.0000 97.4510
v  -378.7606 0.0000 237.8403
v  -247.2248 0.0000 237.8403
# 12 vertices

vn 0.0000 1.0000 -0.0000
vn -0.7071 0.0000 0.7071
vn 0.7071 0.0000 0.7071
vn -0.7071 0.0000 -0.7071
vn 0.7071 0.0000 -0.7071
vn 0.0000 -1.0000 -0.0000
# 6 vertex normals

vt 1.0000 0.0000 0.0000
vt 0.0000 0.0000 0.0000
vt 0.0000 0.2014 0.0000
vt 0.7879 0.2014 0.0000
vt 1.0000 1.0000 0.0000
vt 0.7879 1.0000 0.0000
vt 0.2435 0.0000 0.0000
vt 0.0000 1.0000 0.0000
vt 0.2435 1.0000 0.0000
vt 0.5000 0.0000 0.0000
vt 0.5000 1.0000 0.0000
vt 0.5517 0.0000 0.0000
vt 0.5517 1.0000 0.0000
vt 0.7565 0.0000 0.0000
vt 0.7565 1.0000 0.0000
vt 0.9483 0.0000 0.0000
vt 0.9483 1.0000 0.0000
vt 0.7879 0.7986 0.0000
vt 0.0000 0.7986 0.0000
vt 0.7879 0.0000 0.0000
# 20 texture coords

o kitchen_countertop
g kitchen_countertop
usemtl wire_008110135
s 1
f 47/23/25 48/24/25 49/25/25 50/26/25 
f 51/27/25 47/23/25 50/26/25 52/28/25 
s 2
f 53/29/26 54/24/27 48/30/27 47/31/26 
s 4
f 55/32/28 53/29/26 47/31/26 51/33/28 
s 2
f 56/34/29 55/32/28 51/33/28 52/35/29 
s 4
f 57/36/29 56/34/29 52/35/29 50/37/29 
s 2
f 58/38/29 57/36/29 50/37/29 49/39/29 
s 4
f 54/23/27 58/38/29 49/39/29 48/27/27 
s 1
f 57/40/30 58/41/30 54/30/30 53/27/30 
f 56/42/30 57/40/30 53/27/30 55/23/30 
# 10 polygons

#
# object fridge
#

v  -414.6980 0.0000 92.1843
v  -414.6980 0.0000 39.0640
v  -379.2845 0.0000 39.0640
v  -379.2845 0.0000 92.1843
v  -414.6980 20.8687 92.1843
v  -379.2845 20.8687 92.1843
v  -379.2845 20.8687 39.0640
v  -414.6980 20.8687 39.0640
# 8 vertices

vn -0.5774 -0.5774 0.5774
vn -0.5774 -0.5774 -0.5774
vn 0.5774 -0.5774 -0.5774
vn 0.5774 -0.5774 0.5774
vn -0.5774 0.5774 0.5774
vn 0.5774 0.5774 0.5774
vn 0.5774 0.5774 -0.5774
vn -0.5774 0.5774 -0.5774
# 8 vertex normals

vt 1.0000 0.0000 0.0000
vt 1.0000 1.0000 0.0000
vt 0.0000 1.0000 0.0000
vt 0.0000 0.0000 0.0000
# 4 texture coords

o fridge
g fridge
usemtl wire_154185229
s 2
f 59/43/31 60/44/32 61/45/33 62/46/34 
s 4
f 63/46/35 64/43/36 65/44/37 66/45/38 
s 8
f 59/46/31 62/43/34 64/44/36 63/45/35 
s 16
f 62/46/34 61/43/33 65/44/37 64/45/36 
s 32
f 61/46/33 60/43/32 66/44/38 65/45/37 
s 64
f 60/46/32 59/43/31 63/44/35 66/45/38 
# 6 polygons

#
# object bookshelf
#

v  387.8348 0.0000 45.4305
v  387.8348 0.0000 -109.2879
v  427.1852 0.0000 -109.2879
v  427.1852 0.0000 45.4305
v  387.8348 65.2858 45.4305
v  427.1852 65.2858 45.4305
v  427.1852 65.2858 -109.2879
v  387.8348 65.2858 -109.2879
# 8 vertices

vn -0.5774 -0.5774 0.5774
vn -0.5774 -0.5774 -0.5774
vn 0.5774 -0.5774 -0.5774
vn 0.5774 -0.5774 0.5774
vn -0.5774 0.5774 0.5774
vn 0.5774 0.5774 0.5774
vn 0.5774 0.5774 -0.5774
vn -0.5774 0.5774 -0.5774
# 8 vertex normals

vt 1.0000 0.0000 0.0000
vt 1.0000 1.0000 0.0000
vt 0.0000 1.0000 0.0000
vt 0.0000 0.0000 0.0000
# 4 texture coords

o bookshelf
g bookshelf
usemtl wire_153228153
s 2
f 67/47/39 68/48/40 69/49/41 70/50/42 
s 4
f 71/50/43 72/47/44 73/48/45 74/49/46 
s 8
f 67/50/39 70/47/42 72/48/44 71/49/43 
s 16
f 70/50/42 69/47/41 73/48/45 72/49/44 
s 32
f 69/50/41 68/47/40 74/48/46 73/49/45 
s 64
f 68/50/40 67/47/39 71/48/43 74/49/46 
# 6 polygons

#
# object tv_stand
#

v  -72.1287 0.0000 87.9107
v  -72.1287 0.0000 48.0705
v  21.4641 0.0000 48.0705
v  21.4641 0.0000 87.9107
v  -72.1287 18.9715 87.9107
v  21.4641 18.9715 87.9107
v  21.4641 18.9715 48.0705
v  -72.1287 18.9715 48.0705
# 8 vertices

vn -0.5774 -0.5774 0.5774
vn -0.5774 -0.5774 -0.5774
vn 0.5774 -0.5774 -0.5774
vn 0.5774 -0.5774 0.5774
vn -0.5774 0.5774 0.5774
vn 0.5774 0.5774 0.5774
vn 0.5774 0.5774 -0.5774
vn -0.5774 0.5774 -0.5774
# 8 vertex normals

vt 1.0000 0.0000 0.0000
vt 1.0000 1.0000 0.0000
vt 0.0000 1.0000 0.0000
vt 0.0000 0.0000 0.0000
# 4 texture coords

o tv_stand
g tv_stand
usemtl wire_228214153
s 2
f 75/51/47 76/52/48 77/53/49 78/54/50 
s 4
f 79/54/51 80/51/52 81/52/53 82/53/54 
s 8
f 75/54/47 78/51/50 80/52/52 79/53/51 
s 16
f 78/54/50 77/51/49 81/52/53 80/53/52 
s 32
f 77/54/49 76/51/48 82/52/54 81/53/53 
s 64
f 76/54/48 75/51/47 79/52/51 82/53/54 
# 6 polygons

#
# object Box001
#

v  -410.4499 0.0000 -156.3250
v  -410.4499 0.0000 -187.9064
v  -274.6227 0.0000 -187.9064
v  -274.6227 0.0000 -156.3250
v  -410.4499 33.2841 -156.3250
v  -274.6227 33.2841 -156.3250
v  -274.6227 33.2841 -187.9064
v  -410.4499 33.2841 -187.9064
# 8 vertices

vn -0.5774 -0.5774 0.5774
vn -0.5774 -0.5774 -0.5774
vn 0.5774 -0.5774 -0.5774
vn 0.5774 -0.5774 0.5774
vn -0.5774 0.5774 0.5774
vn 0.5774 0.5774 0.5774
vn 0.5774 0.5774 -0.5774
vn -0.5774 0.5774 -0.5774
# 8 vertex normals

vt 1.0000 0.0000 0.0000
vt 1.0000 1.0000 0.0000
vt 0.0000 1.0000 0.0000
vt 0.0000 0.0000 0.0000
# 4 texture coords

o Box001
g Box001
usemtl wire_213154229
s 2
f 83/55/55 84/56/56 85/57/57 86/58/58 
s 4
f 87/58/59 88/55/60 89/56/61 90/57/62 
s 8
f 83/58/55 86/55/58 88/56/60 87/57/59 
s 16
f 86/58/58 85/55/57 89/56/61 88/57/60 
s 32
f 85/58/57 84/55/56 90/56/62 89/57/61 
s 64
f 84/58/56 83/55/55 87/56/59 90/57/62 
# 6 polygons

#
# object Cylinder001
#

v  344.1652 0.0000 -173.2080
v  369.2010 0.0000 -188.0652
v  374.8761 0.0000 -181.1134
v  376.8471 0.0000 -173.2080
v  349.8403 0.0000 -195.9705
v  360.5061 0.0000 -193.2250
v  327.8242 0.0000 -193.2250
v  338.4900 0.0000 -195.9705
v  313.4542 0.0000 -181.1134
v  319.1294 0.0000 -188.0652
v  313.4542 0.0000 -165.3027
v  311.4832 0.0000 -173.2080
v  327.8242 0.0000 -153.1911
v  319.1294 0.0000 -158.3509
v  349.8403 0.0000 -150.4456
v  338.4900 0.0000 -150.4456
v  369.2010 0.0000 -158.3509
v  360.5061 0.0000 -153.1910
v  374.8761 0.0000 -165.3027
v  374.8761 18.7202 -181.1134
v  376.8471 18.7202 -173.2080
v  369.2010 18.7202 -188.0652
v  360.5061 18.7202 -193.2250
v  349.8403 18.7202 -195.9705
v  338.4900 18.7202 -195.9705
v  327.8242 18.7202 -193.2250
v  319.1294 18.7202 -188.0652
v  313.4542 18.7202 -181.1134
v  311.4832 18.7202 -173.2080
v  313.4542 18.7202 -165.3027
v  319.1294 18.7202 -158.3509
v  327.8242 18.7202 -153.1911
v  338.4900 18.7202 -150.4456
v  349.8403 18.7202 -150.4456
v  360.5061 18.7202 -153.1910
v  369.2010 18.7202 -158.3509
v  374.8761 18.7202 -165.3027
v  344.1652 18.7202 -173.2080
# 38 vertices

vn 0.0000 -1.0000 -0.0000
vn 0.5687 -0.6700 -0.4772
vn 0.6975 -0.6701 -0.2539
vn 0.7423 -0.6701 0.0000
vn 0.1289 -0.6701 -0.7310
vn 0.3712 -0.6701 -0.6428
vn -0.3711 -0.6701 -0.6429
vn -0.1289 -0.6700 -0.7311
vn -0.6975 -0.6701 -0.2539
vn -0.5686 -0.6701 -0.4771
vn -0.6976 -0.6700 0.2539
vn -0.7423 -0.6701 0.0000
vn -0.3712 -0.6700 0.6429
vn -0.5687 -0.6700 0.4772
vn 0.1289 -0.6700 0.7311
vn -0.1289 -0.6700 0.7311
vn 0.5687 -0.6700 0.4772
vn 0.3712 -0.6700 0.6429
vn 0.6975 -0.6701 0.2539
vn 0.6975 0.6701 -0.2539
vn 0.7423 0.6701 0.0000
vn 0.5687 0.6700 -0.4772
vn 0.3712 0.6701 -0.6428
vn 0.1289 0.6701 -0.7310
vn -0.1289 0.6700 -0.7311
vn -0.3711 0.6701 -0.6429
vn -0.5686 0.6701 -0.4771
vn -0.6975 0.6701 -0.2539
vn -0.7423 0.6701 0.0000
vn -0.6976 0.6700 0.2539
vn -0.5687 0.6700 0.4772
vn -0.3712 0.6700 0.6429
vn -0.1289 0.6700 0.7311
vn 0.1289 0.6700 0.7311
vn 0.3712 0.6700 0.6429
vn 0.5687 0.6700 0.4772
vn 0.6975 0.6701 0.2539
vn 0.0000 1.0000 -0.0000
# 38 vertex normals

vt 0.5000 0.0000 0.0000
vt 0.8611 0.0000 1.0000
vt 0.8056 0.0000 1.0000
vt 0.7500 0.0000 1.0000
vt 0.9722 0.0000 1.0000
vt 0.9167 0.0000 1.0000
vt 0.0833 0.0000 1.0000
vt 0.0278 0.0000 1.0000
vt -0.0278 0.0000 1.0000
vt 0.1944 0.0000 1.0000
vt 0.1389 0.0000 1.0000
vt 0.3056 0.0000 1.0000
vt 0.2500 0.0000 1.0000
vt 0.4167 0.0000 1.0000
vt 0.3611 0.0000 1.0000
vt 0.5278 0.0000 1.0000
vt 0.4722 0.0000 1.0000
vt 0.6389 0.0000 1.0000
vt 0.5833 0.0000 1.0000
vt 0.6944 0.0000 1.0000
vt 0.8056 1.0000 1.0000
vt 0.7500 1.0000 1.0000
vt 0.8611 1.0000 1.0000
vt 0.9167 1.0000 1.0000
vt 0.9722 1.0000 1.0000
vt 0.0278 1.0000 1.0000
vt -0.0278 1.0000 1.0000
vt 0.0833 1.0000 1.0000
vt 0.1389 1.0000 1.0000
vt 0.1944 1.0000 1.0000
vt 0.2500 1.0000 1.0000
vt 0.3056 1.0000 1.0000
vt 0.3611 1.0000 1.0000
vt 0.4167 1.0000 1.0000
vt 0.4722 1.0000 1.0000
vt 0.5278 1.0000 1.0000
vt 0.5833 1.0000 1.0000
vt 0.6389 1.0000 1.0000
vt 0.6944 1.0000 1.0000
vt 0.5000 1.0000 0.0000
vt -0.0197 1.0000 0.8794
# 41 texture coords

o Cylinder001
g Cylinder001
usemtl wire_225088199
s 1
f 91/59/63 92/60/64 93/61/65 94/62/66 
f 91/59/63 95/63/67 96/64/68 92/60/64 
f 91/59/63 97/65/69 98/66/70 95/67/67 
f 91/59/63 99/68/71 100/69/72 97/65/69 
f 91/59/63 101/70/73 102/71/74 99/68/71 
f 91/59/63 103/72/75 104/73/76 101/70/73 
f 91/59/63 105/74/77 106/75/78 103/72/75 
f 91/59/63 107/76/79 108/77/80 105/74/77 
f 91/59/63 94/62/66 109/78/81 107/76/79 
s 8
f 94/62/66 93/61/65 110/79/82 111/80/83 
f 93/61/65 92/60/64 112/81/84 110/79/82 
f 92/60/64 96/64/68 113/82/85 112/81/84 
f 96/64/68 95/63/67 114/83/86 113/82/85 
f 95/67/67 98/66/70 115/84/87 114/85/86 
f 98/66/70 97/65/69 116/86/88 115/84/87 
f 97/65/69 100/69/72 117/87/89 116/86/88 
f 100/69/72 99/68/71 118/88/90 117/87/89 
f 99/68/71 102/71/74 119/89/91 118/88/90 
f 102/71/74 101/70/73 120/90/92 119/89/91 
f 101/70/73 104/73/76 121/91/93 120/90/92 
f 104/73/76 103/72/75 122/92/94 121/91/93 
f 103/72/75 106/75/78 123/93/95 122/92/94 
f 106/75/78 105/74/77 124/94/96 123/93/95 
f 105/74/77 108/77/80 125/95/97 124/94/96 
f 108/77/80 107/76/79 126/96/98 125/95/97 
f 107/76/79 109/78/81 127/97/99 126/96/98 
f 109/78/81 94/62/66 111/80/83 127/97/99 
s 1
f 128/98/100 127/97/99 111/80/83 110/79/82 
f 128/98/100 110/79/82 112/81/84 113/82/85 
f 128/98/100 113/99/85 114/85/86 115/84/87 
f 128/98/100 115/84/87 116/86/88 117/87/89 
f 128/98/100 117/87/89 118/88/90 119/89/91 
f 128/98/100 119/89/91 120/90/92 121/91/93 
f 128/98/100 121/91/93 122/92/94 123/93/95 
f 128/98/100 123/93/95 124/94/96 125/95/97 
f 128/98/100 125/95/97 126/96/98 127/97/99 
# 36 polygons

